<svg xmlns="http://www.w3.org/2000/svg" viewBox="0 0 1100 250" width="1100" height="250" font-family="'Pretendard','Malgun Gothic','Apple SD Gothic Neo','Noto Sans KR',sans-serif">
<defs>
<filter id="sh" x="-20%" y="-20%" width="140%" height="140%">
  <feDropShadow dx="0" dy="4" stdDeviation="6" flood-color="#0f172a" flood-opacity="0.18"/>
</filter>
<marker id="arr" viewBox="0 0 10 10" refX="8" refY="5" markerWidth="7" markerHeight="7" orient="auto-start-reverse">
  <path d="M0,0 L10,5 L0,10 z" fill="#94a3b8"/>
</marker>
<linearGradient id="gBlue" x1="0" y1="0" x2="0" y2="1"><stop offset="0" stop-color="#3b82f6"/><stop offset="1" stop-color="#1d4ed8"/></linearGradient><linearGradient id="gTeal" x1="0" y1="0" x2="0" y2="1"><stop offset="0" stop-color="#10b981"/><stop offset="1" stop-color="#047857"/></linearGradient><linearGradient id="gPurple" x1="0" y1="0" x2="0" y2="1"><stop offset="0" stop-color="#8b5cf6"/><stop offset="1" stop-color="#6d28d9"/></linearGradient><linearGradient id="gAmber" x1="0" y1="0" x2="0" y2="1"><stop offset="0" stop-color="#f59e0b"/><stop offset="1" stop-color="#d97706"/></linearGradient><linearGradient id="gPink" x1="0" y1="0" x2="0" y2="1"><stop offset="0" stop-color="#ec4899"/><stop offset="1" stop-color="#be185d"/></linearGradient><linearGradient id="gCyan" x1="0" y1="0" x2="0" y2="1"><stop offset="0" stop-color="#0ea5e9"/><stop offset="1" stop-color="#0369a1"/></linearGradient><linearGradient id="gIndigo" x1="0" y1="0" x2="0" y2="1"><stop offset="0" stop-color="#6366f1"/><stop offset="1" stop-color="#4338ca"/></linearGradient><linearGradient id="gViolet" x1="0" y1="0" x2="0" y2="1"><stop offset="0" stop-color="#a855f7"/><stop offset="1" stop-color="#7e22ce"/></linearGradient><linearGradient id="gRed" x1="0" y1="0" x2="0" y2="1"><stop offset="0" stop-color="#f87171"/><stop offset="1" stop-color="#dc2626"/></linearGradient><linearGradient id="gOut" x1="0" y1="0" x2="0" y2="1"><stop offset="0" stop-color="#fb923c"/><stop offset="1" stop-color="#ea580c"/></linearGradient>
</defs>
<rect x="0" y="0" width="1100" height="250" fill="white"/>
<text x="550.0" y="36" text-anchor="middle" font-size="22" font-weight="800" fill="#0f172a">AI 파이프라인 — 논문에서 지식그래프, 그리고 예측까지</text><g filter="url(#sh)"><rect x="16" y="64" width="162" height="110" rx="18" fill="url(#gBlue)" /></g><text x="97.0" y="106.0" text-anchor="middle" font-size="16" font-weight="800" fill="#fff">PubMed</text><text x="97.0" y="127.0" text-anchor="middle" font-size="14" font-weight="600" fill="#fff">논문 수집</text><text x="97.0" y="148.0" text-anchor="middle" font-size="14" font-weight="600" fill="#e2e8f0">62,281편</text><circle cx="36" cy="84" r="14" fill="#ffffff" filter="url(#sh)"/><text x="36" y="89" text-anchor="middle" font-size="15" font-weight="800" fill="#1d4ed8">1</text><line x1="184" y1="119.0" x2="226" y2="119.0" stroke="#94a3b8" stroke-width="3" marker-end="url(#arr)"/><text x="205.0" y="198" text-anchor="middle" font-size="12.5" font-weight="700" fill="#64748b">GPT 필터</text><g filter="url(#sh)"><rect x="232" y="64" width="162" height="110" rx="18" fill="url(#gTeal)" /></g><text x="313.0" y="106.0" text-anchor="middle" font-size="16" font-weight="800" fill="#fff">관련 논문</text><text x="313.0" y="127.0" text-anchor="middle" font-size="14" font-weight="600" fill="#fff">선별</text><text x="313.0" y="148.0" text-anchor="middle" font-size="14" font-weight="600" fill="#e2e8f0">5,576편</text><circle cx="252" cy="84" r="14" fill="#ffffff" filter="url(#sh)"/><text x="252" y="89" text-anchor="middle" font-size="15" font-weight="800" fill="#047857">2</text><line x1="400" y1="119.0" x2="442" y2="119.0" stroke="#94a3b8" stroke-width="3" marker-end="url(#arr)"/><text x="421.0" y="198" text-anchor="middle" font-size="12.5" font-weight="700" fill="#64748b">GPT 추출</text><g filter="url(#sh)"><rect x="448" y="64" width="162" height="110" rx="18" fill="url(#gPurple)" /></g><text x="529.0" y="106.0" text-anchor="middle" font-size="16" font-weight="800" fill="#fff">인과 엣지</text><text x="529.0" y="127.0" text-anchor="middle" font-size="14" font-weight="600" fill="#fff">추출·표준화</text><text x="529.0" y="148.0" text-anchor="middle" font-size="14" font-weight="600" fill="#e2e8f0">32,939개</text><circle cx="468" cy="84" r="14" fill="#ffffff" filter="url(#sh)"/><text x="468" y="89" text-anchor="middle" font-size="15" font-weight="800" fill="#6d28d9">3</text><line x1="616" y1="119.0" x2="658" y2="119.0" stroke="#94a3b8" stroke-width="3" marker-end="url(#arr)"/><text x="637.0" y="198" text-anchor="middle" font-size="12.5" font-weight="700" fill="#64748b">시각화</text><g filter="url(#sh)"><rect x="664" y="64" width="162" height="110" rx="18" fill="url(#gAmber)" /></g><text x="745.0" y="106.0" text-anchor="middle" font-size="16" font-weight="800" fill="#fff">네트워크</text><text x="745.0" y="127.0" text-anchor="middle" font-size="14" font-weight="600" fill="#fff">그래프</text><text x="745.0" y="148.0" text-anchor="middle" font-size="14" font-weight="600" fill="#e2e8f0">(실습 결승선)</text><circle cx="684" cy="84" r="14" fill="#ffffff" filter="url(#sh)"/><text x="684" y="89" text-anchor="middle" font-size="15" font-weight="800" fill="#d97706">4</text><line x1="832" y1="119.0" x2="874" y2="119.0" stroke="#94a3b8" stroke-width="3" marker-end="url(#arr)"/><text x="853.0" y="198" text-anchor="middle" font-size="12.5" font-weight="700" fill="#64748b">학습</text><g filter="url(#sh)"><rect x="880" y="64" width="162" height="110" rx="18" fill="url(#gPink)" stroke="#be185d" stroke-width="2.5" stroke-dasharray="7 5"/></g><text x="961.0" y="106.0" text-anchor="middle" font-size="16" font-weight="800" fill="#fff">mAb-GATED</text><text x="961.0" y="127.0" text-anchor="middle" font-size="14" font-weight="600" fill="#fff">예측</text><text x="961.0" y="148.0" text-anchor="middle" font-size="14" font-weight="600" fill="#e2e8f0">(개념)</text><circle cx="900" cy="84" r="14" fill="#ffffff" filter="url(#sh)"/><text x="900" y="89" text-anchor="middle" font-size="15" font-weight="800" fill="#be185d">▶</text><text x="550.0" y="236" text-anchor="middle" font-size="14" font-weight="600" fill="#64748b" font-style="italic">← 학생 실습은 '네트워크 그래프'까지  ·  GATED는 개념 설명 →</text></svg>